# Blender v2.93.6 OBJ File: 'ROOM.blend'
# www.blender.org
mtllib room.mtl
o Cubo.022_Cubo.014
v 874.798218 5.987312 -1099.574707
v 874.798218 280.339630 -1099.574707
v 874.798218 5.987312 -1522.473145
v 874.798218 280.339630 -1522.473145
v 1306.924438 5.987312 -1099.574707
v 1306.924438 280.339630 -1099.574707
v 1306.924438 5.987312 -1522.473145
v 1306.924438 280.339630 -1522.473145
v 902.211243 5.987320 -1522.480469
v 902.211243 29.041084 -1522.344116
v 902.211304 5.987320 -1100.073730
v 902.211304 29.041084 -1100.073730
v 874.866272 29.041084 -1522.344116
v 874.825562 29.041084 -1099.588989
vt -1.202406 1.430219
vt -1.202413 -1.434077
vt 2.198967 -1.434076
vt 2.198971 1.430222
vt -1.202405 1.430218
vt -1.202411 -1.434078
vt 2.198968 -1.434075
vt 2.198971 1.430219
vt -1.202406 1.430219
vt -1.202412 -1.434079
vt 2.198967 -1.434074
vt 2.198972 1.430219
vt -1.202406 1.430219
vt -1.202414 -1.434077
vt 2.198968 -1.434075
vt 2.198971 1.430221
vt 0.007340 0.711822
vt 0.194658 0.711822
vt 0.194658 0.892428
vt 0.007340 0.892428
vt 0.406912 0.686328
vt 0.406825 0.519644
vt 0.589295 0.516441
vt 0.588761 0.688188
vt -4.879944 0.675393
vt -4.879942 0.324611
vt 5.879947 0.324610
vt 5.879930 0.675392
vt -4.873431 1.000000
vt -4.873406 0.000002
vt 5.873430 0.000001
vt 5.873434 0.999999
vn -1.0000 0.0000 0.0000
vn 0.0000 0.0000 -1.0000
vn 1.0000 0.0000 0.0000
vn 0.0000 0.0000 1.0000
vn 0.0000 -1.0000 0.0000
vn 0.0000 1.0000 0.0000
# g Cubo.022_Cubo.014_Room2_texture
usemtl room
# s off
f 1/1/1 2/2/1 4/3/1 3/4/1
f 3/5/2 4/6/2 8/7/2 7/8/2
f 7/9/3 8/10/3 6/11/3 5/12/3
f 5/13/4 6/14/4 2/15/4 1/16/4
f 3/17/5 7/18/5 5/19/5 1/20/5
f 8/21/6 4/22/6 2/23/6 6/24/6
f 9/25/3 10/26/3 12/27/3 11/28/3
f 14/29/6 12/30/6 10/31/6 13/32/6
