# Blender v2.93.6 OBJ File: 'ROOM.blend'
# www.blender.org
mtllib room.mtl
# o Cubo.022_Cubo.014
v 938.928467 5.987312 -1099.574707
v 938.928467 133.685059 -1099.574707
v 938.928467 5.987312 -1340.926514
v 938.928467 133.685059 -1340.926514
v 1174.891113 5.987312 -1099.574707
v 1174.891113 133.685059 -1099.574707
v 1174.891113 5.987312 -1340.926514
v 1174.891113 133.685059 -1340.926514
v 985.782959 5.987320 -1340.933838
v 985.782959 29.041084 -1340.797485
v 985.783020 5.987320 -1100.073730
v 985.783020 29.041084 -1100.073730
v 938.972595 29.041084 -1340.797485
v 938.946228 29.041084 -1099.588989
vt -0.735135 1.002846
vt -0.735140 -1.006703
vt 1.731695 -1.006703
vt 1.731698 1.002848
vt -0.735134 1.002845
vt -0.735139 -1.006704
vt 1.731696 -1.006701
vt 1.731698 1.002846
vt -0.735134 1.002845
vt -0.735139 -1.006705
vt 1.731695 -1.006701
vt 1.731698 1.002846
vt -0.735135 1.002846
vt -0.735140 -1.006703
vt 1.731695 -1.006702
vt 1.731697 1.002847
vt 0.007340 0.711822
vt 0.194658 0.711822
vt 0.194658 0.892428
vt 0.007340 0.892428
vt 0.406912 0.686328
vt 0.406825 0.519644
vt 0.589295 0.516441
vt 0.588761 0.688188
vt -4.879944 0.675393
vt -4.879942 0.324611
vt 5.879947 0.324610
vt 5.879930 0.675392
vt -4.873431 1.000000
vt -4.873406 0.000002
vt 5.873430 0.000001
vt 5.873434 0.999999
vn -1.0000 0.0000 0.0000
vn 0.0000 0.0000 -1.0000
vn 1.0000 0.0000 0.0000
vn 0.0000 0.0000 1.0000
vn 0.0000 -1.0000 0.0000
vn 0.0000 1.0000 0.0000
# g Cubo.022_Cubo.014_Room2_texture
usemtl Room2_texture
# s off
f 1/1/1 2/2/1 4/3/1 3/4/1
f 3/5/2 4/6/2 8/7/2 7/8/2
f 7/9/3 8/10/3 6/11/3 5/12/3
f 5/13/4 6/14/4 2/15/4 1/16/4
f 3/17/5 7/18/5 5/19/5 1/20/5
f 8/21/6 4/22/6 2/23/6 6/24/6
f 9/25/3 10/26/3 12/27/3 11/28/3
f 14/29/6 12/30/6 10/31/6 13/32/6
